Coordinates
version=1
nRows=27
nColumns=12
inDegrees=yes

Units are S.I. units (second, meters, Newtons, ...)
Angles are in degrees

endheader
time	SC_y	SC_z	SC_x	AC_y	AC_z	AC_x	GH_y	GH_z	GH_yy	EL_x	PS_y
       0.0               -29.0          39.74          17.37          46.17          3.967         -17.31         -90.42         0.2229          -53.2          134.8          140.6
   0.01901               -29.0          39.74          17.38          46.17          3.968          -17.3          -90.4         0.2245         -53.19          134.8          140.6
   0.03802               -29.0          39.73          17.39          46.18          3.968          -17.3         -90.37         0.2262         -53.17          134.8          140.6
   0.05702              -29.01          39.73           17.4          46.18          3.969          -17.3         -90.34         0.2281         -53.14          134.8          140.6
   0.07603              -29.01          39.72          17.41          46.18          3.969         -17.29         -90.31           0.23         -53.12          134.8          140.6
   0.09504              -29.01          39.71          17.42          46.18           3.97         -17.29         -90.27         0.2321          -53.1          134.8          140.6
     0.114              -29.02          39.71          17.43          46.18          3.971         -17.29         -90.24         0.2343         -53.07          134.8          140.6
    0.1331              -29.02           39.7          17.44          46.18          3.972         -17.28          -90.2         0.2367         -53.04          134.8          140.6
    0.1521              -29.02          39.69          17.45          46.18          3.972         -17.28         -90.16         0.2392         -53.01          134.8          140.5
    0.1711              -29.03          39.68          17.46          46.18          3.973         -17.27         -90.11         0.2419         -52.98          134.8          140.5
    0.1901              -29.03          39.67          17.48          46.18          3.974         -17.27         -90.06         0.2449         -52.95          134.8          140.5
    0.2091              -29.04          39.66          17.49          46.18          3.975         -17.26         -90.01          0.248         -52.91          134.8          140.5
    0.2281              -29.05          39.65          17.51          46.18          3.976         -17.26         -89.96         0.2514         -52.87          134.8          140.5
    0.2471              -29.05          39.64          17.53          46.18          3.977         -17.25          -89.9         0.2551         -52.83          134.8          140.5
    0.2661              -29.06          39.62          17.55          46.18          3.979         -17.24         -89.83          0.259         -52.78          134.8          140.5
    0.2851              -29.07          39.61          17.57          46.18           3.98         -17.24         -89.76         0.2633         -52.73          134.8          140.4
    0.3041              -29.08          39.59          17.59          46.18          3.982         -17.23         -89.69          0.268         -52.68          134.8          140.4
    0.3231              -29.08          39.58          17.61          46.18          3.983         -17.22          -89.6         0.2731         -52.62          134.8          140.4
    0.3421              -29.09          39.56          17.64          46.18          3.985         -17.21         -89.51         0.2786         -52.56          134.8          140.4
    0.3611               -29.1          39.54          17.67          46.18          3.987          -17.2         -89.41         0.2847         -52.49          134.8          140.3
    0.3802              -29.12          39.52           17.7          46.19          3.989         -17.19         -89.31         0.2914         -52.41          134.8          140.3
    0.3992              -29.13          39.49          17.74          46.19          3.991         -17.18         -89.19         0.2988         -52.32          134.8          140.3
    0.4182              -29.14          39.47          17.78          46.19          3.994         -17.16         -89.05         0.3069         -52.23          134.8          140.2
    0.4372              -29.16          39.44          17.82          46.19          3.997         -17.15         -88.91         0.3159         -52.12          134.8          140.2
    0.4562              -29.18           39.4          17.87          46.19            4.0         -17.13         -88.74         0.3259         -52.01          134.8          140.1
    0.4752               -29.2          39.37          17.92          46.19          4.004         -17.11         -88.56         0.3371         -51.88          134.8          140.1
    0.4942              -29.22          39.32          17.98          46.19          4.008         -17.09         -88.36         0.3496         -51.73          134.8          140.0
